<svg id="Layer_1" data-name="Layer 1" xmlns="http://www.w3.org/2000/svg" viewBox="0 0 197.56 197.56"><defs><style>.cls-1{fill:#fff;stroke:#3a9947;stroke-miterlimit:10;stroke-width:5px;}.cls-2{fill:#3a9947;}</style></defs><title>HARVESTEDIO</title><circle class="cls-1" cx="98.92" cy="98.92" r="68.31"/><polygon class="cls-1" points="189.74 122.88 8.1 122.88 18.09 98.19 8.1 74.96 189.74 74.96 179.74 98.19 189.74 122.88"/><rect class="cls-2" x="95.68" y="178.13" width="6.47" height="14.05" rx="1.98"/><rect class="cls-2" x="95.68" y="5.66" width="6.47" height="14.05" rx="1.98"/><rect class="cls-2" x="156.66" y="152.87" width="6.47" height="14.05" rx="1.98" transform="translate(-66.23 159.9) rotate(-45)"/><rect class="cls-2" x="34.7" y="30.91" width="6.47" height="14.05" rx="1.98" transform="translate(-15.72 37.94) rotate(-45)"/><rect class="cls-2" x="152.87" y="34.7" width="14.05" height="6.47" rx="1.98" transform="translate(20.01 124.18) rotate(-45)"/><rect class="cls-2" x="30.91" y="156.66" width="14.05" height="6.47" rx="1.98" transform="translate(-101.95 73.66) rotate(-45)"/><path class="cls-2" d="M39.8,89.44h2.47a.3.3,0,0,1,.32.32v18.13a.31.31,0,0,1-.32.33H39.8a.31.31,0,0,1-.32-.33V100.3a.12.12,0,0,0-.13-.13H35.94a.12.12,0,0,0-.13.13v7.59a.32.32,0,0,1-.33.33H33a.32.32,0,0,1-.33-.33V89.76a.31.31,0,0,1,.33-.32h2.46a.31.31,0,0,1,.33.32v7.57a.12.12,0,0,0,.13.13h3.41a.12.12,0,0,0,.13-.13V89.76A.3.3,0,0,1,39.8,89.44Z"/><path class="cls-2" d="M53.14,107.92l-.51-2.81a.15.15,0,0,0-.16-.14H48.58c-.08,0-.17,0-.17.11l-.53,2.84a.31.31,0,0,1-.35.3H45.06c-.21,0-.32-.11-.27-.35l4-18.14a.32.32,0,0,1,.35-.29H52a.32.32,0,0,1,.34.29l4,18.14c.06.24-.08.35-.29.35h-2.5A.3.3,0,0,1,53.14,107.92Zm-4-5.39H52c.08,0,.16,0,.13-.13l-1.47-8.11c0-.1-.14-.1-.16,0L49,102.4C48.92,102.5,49,102.53,49.09,102.53Z"/><path class="cls-2" d="M65.56,108l-2.31-7.73s0-.1-.13-.1h-1.4a.12.12,0,0,0-.13.13v7.64a.32.32,0,0,1-.33.33H58.8a.31.31,0,0,1-.32-.33V89.73a.31.31,0,0,1,.32-.32h5c2.87,0,4.8,2.23,4.8,5.47a5,5,0,0,1-2.44,4.73.11.11,0,0,0-.08.16l2.63,8.07a.26.26,0,0,1-.27.38H65.91A.35.35,0,0,1,65.56,108Zm-4-15.72v5.34a.12.12,0,0,0,.13.13h1.64c1.28,0,2.17-1,2.17-2.76s-.89-2.84-2.17-2.84H61.72A.12.12,0,0,0,61.59,92.23Z"/><path class="cls-2" d="M74,107.92,70.12,89.79c-.05-.24,0-.35.27-.35H73.1a.32.32,0,0,1,.35.29l2.22,12.91c0,.1.14.1.16,0L78,89.73a.3.3,0,0,1,.34-.29H81c.22,0,.32.11.27.35l-3.86,18.13a.33.33,0,0,1-.35.3H74.3A.34.34,0,0,1,74,107.92Z"/><path class="cls-2" d="M92.49,92.12H86.7a.14.14,0,0,0-.14.14v5.07a.13.13,0,0,0,.14.13h3.43a.3.3,0,0,1,.32.32v2.07a.31.31,0,0,1-.32.32H86.7a.13.13,0,0,0-.14.13v5.1a.13.13,0,0,0,.14.13h5.79a.31.31,0,0,1,.32.33v2a.31.31,0,0,1-.32.33H83.77a.32.32,0,0,1-.32-.33V89.76a.31.31,0,0,1,.32-.32h8.72a.3.3,0,0,1,.32.32v2A.3.3,0,0,1,92.49,92.12Z"/><path class="cls-2" d="M94.75,103.58v-.76a.31.31,0,0,1,.32-.32h2.41a.31.31,0,0,1,.32.32v.59c0,1.43.81,2.34,1.88,2.34a2,2,0,0,0,1.91-2.2c0-1.42-.94-2.09-2.82-3.49-2-1.47-4.08-3-4.08-6a4.58,4.58,0,0,1,4.86-4.86,4.74,4.74,0,0,1,5,5v.64a.31.31,0,0,1-.32.32h-2.45a.31.31,0,0,1-.32-.32v-.7c0-1.39-.78-2.3-1.9-2.3s-1.8.77-1.8,2.17.73,2,2.71,3.49c2.74,2,4.21,3.19,4.21,5.82a4.74,4.74,0,0,1-5,5A4.65,4.65,0,0,1,94.75,103.58Z"/><path class="cls-2" d="M116.64,89.76v2a.31.31,0,0,1-.32.32h-3.41a.14.14,0,0,0-.14.14v15.63a.31.31,0,0,1-.32.33H110a.32.32,0,0,1-.32-.33V92.26a.13.13,0,0,0-.13-.14h-3.22a.3.3,0,0,1-.32-.32v-2a.3.3,0,0,1,.32-.32h10A.31.31,0,0,1,116.64,89.76Z"/><path class="cls-2" d="M127.85,92.12h-5.79a.14.14,0,0,0-.14.14v5.07a.13.13,0,0,0,.14.13h3.43a.3.3,0,0,1,.32.32v2.07a.31.31,0,0,1-.32.32h-3.43a.13.13,0,0,0-.14.13v5.1a.13.13,0,0,0,.14.13h5.79a.31.31,0,0,1,.32.33v2a.31.31,0,0,1-.32.33h-8.72a.32.32,0,0,1-.32-.33V89.76a.31.31,0,0,1,.32-.32h8.72a.3.3,0,0,1,.32.32v2A.3.3,0,0,1,127.85,92.12Z"/><path class="cls-2" d="M130.48,107.89V89.76a.31.31,0,0,1,.32-.32h4.59a4.77,4.77,0,0,1,5.07,5.12v8.53a4.78,4.78,0,0,1-5.07,5.13H130.8A.32.32,0,0,1,130.48,107.89Zm3.25-2.36,1.61,0c1.18,0,2-1,2-2.6V94.75c0-1.61-.78-2.63-2-2.63h-1.58a.14.14,0,0,0-.14.14V105.4A.13.13,0,0,0,133.73,105.53Z"/><path class="cls-2" d="M142.69,106.18a2,2,0,1,1,4,0,2,2,0,1,1-4,0Z"/><path class="cls-2" d="M149.5,107.89V89.76a.31.31,0,0,1,.32-.32h2.47a.3.3,0,0,1,.32.32v18.13a.31.31,0,0,1-.32.33h-2.47A.32.32,0,0,1,149.5,107.89Z"/><path class="cls-2" d="M155.19,103.33v-9a5.14,5.14,0,0,1,10.27,0v9a5.14,5.14,0,0,1-10.27,0Zm7.16.14V94.19a2,2,0,1,0-4,0v9.28a2,2,0,1,0,4,0Z"/></svg>