<svg id="Layer_1" data-name="Layer 1" xmlns="http://www.w3.org/2000/svg" viewBox="0 0 197.56 197.56"><defs><style>.cls-1{fill:#fff;stroke:#3a9947;stroke-miterlimit:10;stroke-width:5px;}.cls-2,.cls-3{fill:#3a9947;}.cls-3{font-size:26.83px;font-family:BarlowCondensed-SemiBold, Barlow Condensed;font-weight:600;}.cls-4{letter-spacing:0em;}.cls-5{letter-spacing:-0.01em;}</style></defs><title>HARVESTEDIO</title><circle class="cls-1" cx="98.92" cy="98.92" r="68.31"/><polygon class="cls-1" points="189.74 122.88 8.1 122.88 18.09 98.19 8.1 74.96 189.74 74.96 179.74 98.19 189.74 122.88"/><rect class="cls-2" x="95.68" y="178.13" width="6.47" height="14.05" rx="1.98"/><rect class="cls-2" x="95.68" y="5.66" width="6.47" height="14.05" rx="1.98"/><rect class="cls-2" x="156.66" y="152.87" width="6.47" height="14.05" rx="1.98" transform="translate(-66.23 159.9) rotate(-45)"/><rect class="cls-2" x="34.7" y="30.91" width="6.47" height="14.05" rx="1.98" transform="translate(-15.72 37.94) rotate(-45)"/><rect class="cls-2" x="152.87" y="34.7" width="14.05" height="6.47" rx="1.98" transform="translate(20.01 124.18) rotate(-45)"/><rect class="cls-2" x="30.91" y="156.66" width="14.05" height="6.47" rx="1.98" transform="translate(-101.95 73.66) rotate(-45)"/><text class="cls-3" transform="translate(31.25 108.22)">HA<tspan class="cls-4" x="25.78" y="0">R</tspan><tspan x="38.12" y="0">VE</tspan><tspan class="cls-5" x="62.43" y="0">S</tspan><tspan x="73.99" y="0">TE</tspan><tspan class="cls-5" x="97.79" y="0">D</tspan><tspan x="110.21" y="0">.IO</tspan></text></svg>